<svg xmlns="http://www.w3.org/2000/svg" viewBox="0 0 284 196"><defs><linearGradient id="plastic" x1="0" x2="0" y2="1"><stop stop-color="#f7ffff"/><stop offset=".55" stop-color="#c4e1e5"/><stop offset="1" stop-color="#86b4bd"/></linearGradient><linearGradient id="lid" x1="0" x2="0" y2="1"><stop stop-color="#e9fbfc" stop-opacity=".72"/><stop offset="1" stop-color="#8fc2cb" stop-opacity=".5"/></linearGradient></defs><path d="M45 95q0-11 11-11h173q11 0 11 11v64q0 12-12 12H56q-11 0-11-12z" fill="url(#plastic)" stroke="#547b83" stroke-width="3"/><path d="M53 105q0-7 7-7h164q7 0 7 7v39q0 7-7 7H60q-7 0-7-7z" fill="#f9ffff" stroke="#7ba8af" stroke-width="2"/><path d="M55 151h174q0 12-12 12H67q-12 0-12-12z" fill="#79aab4"/><path d="M67 112h151" stroke="#d3eef1" stroke-width="2"/><g fill="#6ba7b2" stroke="#4d8792" stroke-width="1.2"><ellipse cx="76" cy="121" rx="7" ry="3.5"/><ellipse cx="96" cy="121" rx="7" ry="3.5"/><ellipse cx="116" cy="121" rx="7" ry="3.5"/><ellipse cx="136" cy="121" rx="7" ry="3.5"/><ellipse cx="156" cy="121" rx="7" ry="3.5"/><ellipse cx="176" cy="121" rx="7" ry="3.5"/><ellipse cx="196" cy="121" rx="7" ry="3.5"/></g><g stroke="#65a5b1" stroke-width="3" stroke-linecap="round"><path d="M76 123v17l-4 8h8l-4-8"/><path d="M96 123v17l-4 8h8l-4-8"/><path d="M116 123v17l-4 8h8l-4-8"/><path d="M136 123v17l-4 8h8l-4-8"/><path d="M156 123v17l-4 8h8l-4-8"/><path d="M176 123v17l-4 8h8l-4-8"/><path d="M196 123v17l-4 8h8l-4-8"/></g><path d="M60 84v-14q0-7 7-7h150q7 0 7 7v14" fill="none" stroke="#638d95" stroke-width="7" stroke-linecap="round"/><path d="M52 28q0-8 8-8h165q8 0 8 8v42q0 8-8 8H60q-8 0-8-8z" fill="url(#lid)" stroke="#638d95" stroke-width="3"/><path d="M63 31h159v35H63z" fill="#edfcfd" fill-opacity=".25" stroke="#b3dce1" stroke-width="2"/><path d="M61 72h163" stroke="#fff" stroke-width="3" opacity=".85"/><path d="M74 41h137" stroke="#fff" stroke-width="2" opacity=".65"/></svg>
