<svg xmlns="http://www.w3.org/2000/svg" viewBox="0 0 214 308">
  <g stroke="#29495a" stroke-linejoin="round">
    <path d="M31 21h152v22H31z" fill="#8fc4da" stroke-width="3"/>
    <path d="M35 25h144v5H35z" fill="#f7fcfd" stroke="none" opacity=".85"/>
    <g fill="#cfeaf3" stroke-width="2">
      <path d="M36 42h11v16H36zM50 42h11v16H50zM64 42h11v16H64zM78 42h11v16H78zM92 42h11v16H92z"/>
      <path d="M106 42h11v16h-11zM120 42h11v16h-11zM134 42h11v16h-11zM148 42h11v16h-11zM162 42h11v16h-11z"/>
    </g>
  </g>
</svg>
