<svg xmlns="http://www.w3.org/2000/svg" viewBox="0 0 348 213.5" role="img">
  <path d="M25 129h298l17 38H8z" fill="#5b7078" stroke="#26343b" stroke-width="7" stroke-linejoin="round"/>
  <path d="M27 129h294" fill="none" stroke="#d7e8ea" stroke-width="4" stroke-linecap="round"/>
  <path d="M44 171h44m172 0h44" fill="none" stroke="#26343b" stroke-width="11" stroke-linecap="round"/>
  <rect x="48" y="138" width="130" height="23" rx="2" fill="#26343b" stroke="#1a272d" stroke-width="3"/>
  <rect x="58" y="144" width="54" height="11" rx="1" fill="#9bd6dc" stroke="#295560" stroke-width="2"/>
  <circle cx="133" cy="149" r="7" fill="#dcecef" stroke="#26343b" stroke-width="2.5"/>
  <circle cx="158" cy="149" r="7" fill="#657981" stroke="#26343b" stroke-width="2.5"/>
  <path d="M204 149h96" fill="none" stroke="#dce9eb" stroke-width="6" stroke-linecap="round"/>
  <path d="m174 124-37-35h74z" fill="#7c959d" stroke="#26343b" stroke-width="5" stroke-linejoin="round"/>
  <circle cx="174" cy="104" r="13" fill="#eaf4f5" stroke="#26343b" stroke-width="4"/>
  <path d="M174 97v14m-7-7h14" fill="none" stroke="#58717a" stroke-width="2.5" stroke-linecap="round"/>
  <path d="M41 73h266l-19 19H60z" fill="#89a7ae" stroke="#26343b" stroke-width="6" stroke-linejoin="round"/>
  <path d="M50 54h248l9 19H41z" fill="#e4f1f2" stroke="#26343b" stroke-width="6" stroke-linejoin="round"/>
  <path d="M63 44h222l13 10H50z" fill="#f9fdfd" stroke="#26343b" stroke-width="5" stroke-linejoin="round"/>
  <path d="M76 50h196l7 8H69z" fill="#b8d9dd" stroke="#5f8088" stroke-width="3" stroke-linejoin="round"/>
  <path d="M89 59v10m30-10v10m30-10v10m30-10v10m30-10v10m30-10v10" fill="none" stroke="#63858e" stroke-width="3" stroke-linecap="round"/>
  <path d="M72 83h204" fill="none" stroke="#fff" stroke-width="3" stroke-linecap="round"/>
</svg>
