<svg xmlns="http://www.w3.org/2000/svg" viewBox="0 0 132 460" data-vlab-rendering="material" data-vlab-fill-height-exponent="1"><defs><linearGradient id="b" x1="0" x2="1"><stop stop-color="#fff"/><stop offset=".66" stop-color="#e0e8ef"/><stop offset="1" stop-color="#9db3c5"/></linearGradient><linearGradient id="m" x1="0" x2="1"><stop stop-color="#f7fbfd"/><stop offset=".54" stop-color="#c4d4de"/><stop offset="1" stop-color="#7894a9"/></linearGradient><clipPath id="anchor_liquid_clip" clipPathUnits="userSpaceOnUse"><path d="M 48 313 L 80 313 L 76 425 L 71 444 L 60 444 L 54 425 Z"/></clipPath></defs>
<g data-vlab-layer-name="p1000_fixed_back" data-vlab-layer-kind="fixed"><path d="M 78 38 C 95 42 101 53 101 70 L 101 197 C 101 211 107 221 113 227 L 97 242 L 81 230 L 79 258 L 73 313 L 62 313 L 69 256 L 60 238 L 69 220 L 69 55 C 69 45 72 40 78 38 Z" fill="#7799b1"/><path d="M 79 310 L 91 310 L 83 425 L 78 444 L 69 444 L 64 425 L 71 310 Z" fill="#a5c6d2"/></g>
<g data-vlab-layer-name="p1000_tip_bottom" data-vlab-layer-kind="material" data-vlab-paint-role="base" data-vlab-liquid-part="bottom"><path d="M 54 424 L 77 424 L 75 436 L 72 444 L 63 444 L 57 436 Z" fill="#f7fbfc"/></g><g data-vlab-layer-name="p1000_tip_body" data-vlab-layer-kind="material" data-vlab-paint-role="base" data-vlab-liquid-part="body"><path d="M 48 313 L 80 313 L 76 425 L 54 425 Z" fill="#f7fbfc"/></g><g data-vlab-layer-name="p1000_tip_highlight" data-vlab-layer-kind="material" data-vlab-paint-role="highlight" data-vlab-adjustment="0.18" data-vlab-liquid-part="body"><path d="M 54 313 L 60 313 L 61 425 L 57 425 Z" fill="#fff"/></g><g data-vlab-layer-name="p1000_tip_shadow" data-vlab-layer-kind="material" data-vlab-paint-role="shadow" data-vlab-adjustment="-0.18" data-vlab-liquid-part="body"><path d="M 74 313 L 80 313 L 76 425 L 71 425 Z" fill="#cfe2e7"/></g><g data-vlab-layer-name="p1000_tip_surface" data-vlab-layer-kind="material" data-vlab-paint-role="highlight" data-vlab-adjustment="0.12" data-vlab-liquid-part="surface"><path d="M 48 313 Q 64 307 80 313 L 80 318 L 48 318 Z" fill="#fff"/></g>
<g data-vlab-layer-name="p1000_fixed_front" data-vlab-layer-kind="fixed" stroke="#53636f" stroke-linecap="round" stroke-linejoin="round"><ellipse cx="67" cy="19" rx="22" ry="6" fill="#739fac" stroke-width="1.55"/><path d="M 45 19 L 45 35 C 57 43 75 43 88 35 L 88 19" fill="url(#m)" stroke-width="1.45"/><ellipse cx="67" cy="35" rx="22" ry="5" fill="#a6b9c6" stroke-width="1"/><path d="M 50 38 C 59 32 73 32 82 38 L 82 53 C 73 59 59 59 50 53 Z" fill="#d8e2eb" stroke-width="1.25"/><path d="M 38 51 C 47 40 65 39 78 43 C 87 46 91 52 91 61 L 91 198 C 91 218 85 230 72 237 C 57 245 40 237 31 223 C 26 215 24 206 24 194 L 24 72 C 24 62 29 54 38 51 Z" fill="url(#b)" stroke-width="1.75"/><path d="M 82 56 C 91 59 95 64 95 72 L 95 198 C 95 211 99 220 106 228 L 96 238 L 85 228 C 82 219 82 209 82 199 Z" fill="#a3b9cb" stroke-width="1.15"/><path d="M 30 74 C 39 63 52 60 69 63 L 69 74 C 52 71 40 76 30 86 Z" fill="#fff" opacity=".82" stroke="none"/><path d="M 45 110 C 53 105 64 105 72 108 L 72 182 C 63 188 53 188 45 183 Z" fill="#505d66" stroke-width="1.35"/><path d="M 50 116 C 56 114 63 114 68 116 L 68 177 C 62 180 55 180 50 178 Z" fill="#edf1f5" stroke="none"/><path d="M 54 127 L 66 127 M 54 139 L 66 139 M 54 151 L 66 151 M 54 163 L 66 163" stroke="#61728e" stroke-width="1.75"/><path d="M 27 150 C 33 144 42 144 48 150 L 48 211 C 43 221 34 224 27 217 Z" fill="#f8fbfd" stroke-width="1.5"/><path d="M 31 214 C 43 222 58 224 71 217 L 78 233 C 66 246 47 249 30 237 Z" fill="#739fac" stroke-width="1.65"/><path d="M 32 233 C 45 242 63 242 78 232 L 74 249 C 62 260 44 261 30 252 Z" fill="#8fb9c5" stroke-width="1.35"/><path d="M 41 252 C 51 257 62 257 73 252 L 71 274 C 63 282 53 282 44 274 Z" fill="url(#m)" stroke-width="1.35"/><path d="M 45 273 C 53 278 63 278 73 273 L 80 313 L 48 313 Z" fill="url(#m)" stroke-width="1.45"/><ellipse cx="64" cy="313" rx="16" ry="3.4" fill="#9ab3c1" stroke-width="1"/><path d="M 47 313 L 81 313 L 76 425 L 72 444 L 63 444 L 54 425 Z" fill="#f4fbfc" fill-opacity=".48" stroke-width="1.45"/><path d="M 53 286 L 57 310" stroke="#fff" stroke-width="2.7" opacity=".75"/><path d="M 58 436 L 75 436" stroke-width="1.1"/></g><rect id="anchor_liquid_bounds" x="48" y="313" width="32" height="131" fill="none" stroke="none" display="none"/><path id="anchor_highlight" d="M 20 11 L 107 11 L 107 446 L 20 446 Z" fill="none" stroke="none" display="none"/><path id="anchor_error" d="M 89 51 L 106 51 L 106 69 L 89 69 Z" fill="none" stroke="none" display="none"/><g id="overlay_root"/></svg>