<svg xmlns="http://www.w3.org/2000/svg" viewBox="0 0 120 360" data-vlab-rendering="material" data-vlab-fill-height-exponent="1">
  <defs><linearGradient id="dispenser_shell" x1="0" y1="0" x2="1" y2="1"><stop stop-color="#fbfefe"/><stop offset=".5" stop-color="#c5dfe3"/><stop offset="1" stop-color="#739ca7"/></linearGradient><clipPath id="anchor_liquid_clip" clipPathUnits="userSpaceOnUse"><path d="M40 82H78V211H40Z"/></clipPath></defs>
  <g data-vlab-layer-name="dispenser_fixed_back" data-vlab-layer-kind="fixed"><path d="M75 47c15 0 25 11 25 26V198l7 11-9 12-18-12V225c0 10-8 18-18 18H49c-13 0-23-10-23-23V65c0-13 9-22 22-24l14-6Z" fill="#769ca6"/><path d="M59 244H71L68 318H59Z" fill="#a6c7ce"/></g>
  <g data-vlab-layer-name="cartridge_liquid_bottom" data-vlab-layer-kind="material" data-vlab-paint-role="base" data-vlab-liquid-part="bottom"><path d="M40 198H78V211H40Z" fill="#f8f8f8"/></g><g data-vlab-layer-name="cartridge_liquid_body" data-vlab-layer-kind="material" data-vlab-paint-role="base" data-vlab-liquid-part="body"><path d="M40 82H78V211H40Z" fill="#f8f8f8"/></g><g data-vlab-layer-name="cartridge_liquid_surface" data-vlab-layer-kind="material" data-vlab-paint-role="highlight" data-vlab-adjustment="0.18" data-vlab-liquid-part="surface"><path d="M41 83c10-3 25-3 36 0V87H41Z" fill="#fff"/></g>
  <g data-vlab-layer-name="dispenser_fixed_front" data-vlab-layer-kind="fixed" fill="none" stroke="#48636c" stroke-linejoin="round" stroke-linecap="round"><path d="M45 17c9-7 22-7 30 0 4 4 5 9 4 16l-1 16c9 3 16 10 16 21V198l8 11-8 11-18-12V224c0 8-6 14-14 14H48c-12 0-21-9-21-21V65c0-12 8-21 21-22l-1-13c0-5-1-9 3-13Z" fill="url(#dispenser_shell)" stroke-width="2"/><path d="M43 19c9 5 23 5 33-1M44 33c9 5 22 5 32 0" stroke="#8eafb7" stroke-width="1"/><rect x="51" y="53" width="20" height="13" rx="3" fill="#567681" stroke="#5c7d87" stroke-width="1"/><path d="M56 59H66" stroke="#dff3f3" stroke-width="1.4"/><path d="M40 82H78V211H40Z" fill="#effbfc" fill-opacity=".2" stroke="#668d98" stroke-width="1.7"/><ellipse cx="59" cy="82" rx="19" ry="3" fill="#f7ffff" fill-opacity=".4" stroke="#769fa8" stroke-width=".8"/><path d="M46 105H55M46 129H58M46 153H55M46 177H58M46 201H55M46 90V201" stroke="#6d97a2" stroke-width="1"/><path d="M46 90V201" stroke="#fff" stroke-width="1.8" opacity=".72"/><path d="M29 194c14 8 34 9 52 2l6 16c-18 10-39 10-58 1Z" fill="#b9d7dc" stroke-width="1.7"/><path d="M48 224H70L67 246H51ZM52 245H67L64 318H55Z" fill="#f6fcfc" stroke-width="1.7"/><path d="M55 318H64L62 348H57Z" fill="#aacbd1" stroke-width="1.4"/><path d="M87 70V178M92 75V175" stroke="#5d848e" stroke-width="1.5"/></g>
  <rect id="anchor_liquid_bounds" x="40" y="82" width="38" height="129" fill="none" stroke="none" display="none"/><path id="anchor_highlight" d="M20 14H92V353H20Z" fill="none" stroke="none" display="none"/><path id="anchor_error" d="M78 30H90V45H78Z" fill="none" stroke="none" display="none"/><g id="overlay_root"/>
</svg>
